{
  "asset": {
    "generator": "Khronos glTF Blender I/O v1.4.40",
    "version": "2.0"
  },
  "scene": 0,
  "scenes": [
    {
      "name": "Scene",
      "nodes": [
        7
      ]
    }
  ],
  "nodes": [
    {
      "mesh": 0,
      "name": "armLeft",
      "scale": [
        0.8583999872207642,
        0.8583999872207642,
        0.8583999872207642
      ],
      "translation": [
        -0.12999999523162842,
        0.4731839895248413,
        0
      ]
    },
    {
      "mesh": 1,
      "name": "armRight",
      "translation": [
        0.13000011444091797,
        0.4731839895248413,
        0
      ]
    },
    {
      "mesh": 2,
      "name": "body",
      "translation": [
        0,
        0.2231840044260025,
        0
      ]
    },
    {
      "mesh": 3,
      "name": "head",
      "scale": [
        0.25999999046325684,
        0.25999999046325684,
        0.25999999046325684
      ],
      "translation": [
        0,
        0.48318397998809814,
        0
      ]
    },
    {
      "mesh": 4,
      "name": "legLeft",
      "translation": [
        -0.12999999523162842,
        0.2231840044260025,
        0
      ]
    },
    {
      "mesh": 5,
      "name": "legRight",
      "scale": [
        0.8583999872207642,
        0.8583999872207642,
        0.8583999872207642
      ],
      "translation": [
        0.13000011444091797,
        0.2231840044260025,
        0
      ]
    },
    {
      "children": [
        0,
        1,
        2,
        3,
        4,
        5
      ],
      "name": "alien"
    },
    {
      "children": [
        6
      ],
      "name": "tmpParent"
    }
  ],
  "materials": [
    {
      "name": "crystal",
      "pbrMetallicRoughness": {
        "baseColorFactor": [
          0.18623177707195282,
          0.8773584961891174,
          0.5934362411499023,
          1
        ]
      }
    },
    {
      "name": "metal",
      "pbrMetallicRoughness": {
        "baseColorFactor": [
          0.843137264251709,
          0.8705882430076599,
          0.9098039269447327,
          1
        ]
      }
    },
    {
      "name": "metalRed",
      "pbrMetallicRoughness": {
        "baseColorFactor": [
          1,
          0.6285242438316345,
          0.20283019542694092,
          1
        ]
      }
    },
    {
      "name": "metalDark",
      "pbrMetallicRoughness": {
        "baseColorFactor": [
          0.6750622987747192,
          0.7100219130516052,
          0.7735849022865295,
          1
        ]
      }
    },
    {
      "name": "dark",
      "pbrMetallicRoughness": {
        "baseColorFactor": [
          0.27450981736183167,
          0.2980392277240753,
          0.34117648005485535,
          1
        ]
      }
    }
  ],
  "meshes": [
    {
      "name": "Mesh armLeft",
      "primitives": [
        {
          "attributes": {
            "POSITION": 0,
            "NORMAL": 1,
            "TEXCOORD_0": 2
          },
          "indices": 3,
          "material": 0
        },
        {
          "attributes": {
            "POSITION": 4,
            "NORMAL": 5,
            "TEXCOORD_0": 6
          },
          "indices": 7,
          "material": 1
        },
        {
          "attributes": {
            "POSITION": 8,
            "NORMAL": 9,
            "TEXCOORD_0": 10
          },
          "indices": 11,
          "material": 2
        }
      ]
    },
    {
      "name": "Mesh armRight",
      "primitives": [
        {
          "attributes": {
            "POSITION": 12,
            "NORMAL": 13,
            "TEXCOORD_0": 14
          },
          "indices": 15,
          "material": 0
        },
        {
          "attributes": {
            "POSITION": 16,
            "NORMAL": 17,
            "TEXCOORD_0": 18
          },
          "indices": 19,
          "material": 2
        },
        {
          "attributes": {
            "POSITION": 20,
            "NORMAL": 21,
            "TEXCOORD_0": 22
          },
          "indices": 23,
          "material": 1
        }
      ]
    },
    {
      "name": "Mesh body",
      "primitives": [
        {
          "attributes": {
            "POSITION": 24,
            "NORMAL": 25,
            "TEXCOORD_0": 26
          },
          "indices": 27,
          "material": 3
        },
        {
          "attributes": {
            "POSITION": 28,
            "NORMAL": 29,
            "TEXCOORD_0": 30
          },
          "indices": 31,
          "material": 1
        },
        {
          "attributes": {
            "POSITION": 32,
            "NORMAL": 33,
            "TEXCOORD_0": 34
          },
          "indices": 35,
          "material": 2
        }
      ]
    },
    {
      "name": "Mesh head",
      "primitives": [
        {
          "attributes": {
            "POSITION": 36,
            "NORMAL": 37,
            "TEXCOORD_0": 38
          },
          "indices": 39,
          "material": 0
        },
        {
          "attributes": {
            "POSITION": 40,
            "NORMAL": 41,
            "TEXCOORD_0": 42
          },
          "indices": 43,
          "material": 4
        },
        {
          "attributes": {
            "POSITION": 44,
            "NORMAL": 45,
            "TEXCOORD_0": 46
          },
          "indices": 47,
          "material": 1
        }
      ]
    },
    {
      "name": "Mesh legLeft",
      "primitives": [
        {
          "attributes": {
            "POSITION": 48,
            "NORMAL": 49,
            "TEXCOORD_0": 50
          },
          "indices": 51,
          "material": 3
        },
        {
          "attributes": {
            "POSITION": 52,
            "NORMAL": 53,
            "TEXCOORD_0": 54
          },
          "indices": 55,
          "material": 4
        },
        {
          "attributes": {
            "POSITION": 56,
            "NORMAL": 57,
            "TEXCOORD_0": 58
          },
          "indices": 59,
          "material": 1
        }
      ]
    },
    {
      "name": "Mesh legRight",
      "primitives": [
        {
          "attributes": {
            "POSITION": 60,
            "NORMAL": 61,
            "TEXCOORD_0": 62
          },
          "indices": 63,
          "material": 4
        },
        {
          "attributes": {
            "POSITION": 64,
            "NORMAL": 65,
            "TEXCOORD_0": 66
          },
          "indices": 67,
          "material": 3
        },
        {
          "attributes": {
            "POSITION": 68,
            "NORMAL": 69,
            "TEXCOORD_0": 70
          },
          "indices": 71,
          "material": 1
        }
      ]
    }
  ],
  "accessors": [
    {
      "bufferView": 0,
      "componentType": 5126,
      "count": 36,
      "max": [
        3.914578938779556e-10,
        -0.1551537662744522,
        0.06499999016523361
      ],
      "min": [
        -0.12999999523162842,
        -0.39179620146751404,
        -0.11753921210765839
      ],
      "type": "VEC3"
    },
    {
      "bufferView": 1,
      "componentType": 5126,
      "count": 36,
      "type": "VEC3"
    },
    {
      "bufferView": 2,
      "componentType": 5126,
      "count": 36,
      "type": "VEC2"
    },
    {
      "bufferView": 3,
      "componentType": 5123,
      "count": 42,
      "type": "SCALAR"
    },
    {
      "bufferView": 4,
      "componentType": 5126,
      "count": 12,
      "max": [
        2.0213519714377265e-14,
        2.707167856703783e-16,
        0.06499999761581421
      ],
      "min": [
        -0.12999999523162842,
        -0.06499999761581421,
        -0.0650000050663948
      ],
      "type": "VEC3"
    },
    {
      "bufferView": 5,
      "componentType": 5126,
      "count": 12,
      "type": "VEC3"
    },
    {
      "bufferView": 6,
      "componentType": 5126,
      "count": 12,
      "type": "VEC2"
    },
    {
      "bufferView": 7,
      "componentType": 5123,
      "count": 12,
      "type": "SCALAR"
    },
    {
      "bufferView": 8,
      "componentType": 5126,
      "count": 28,
      "max": [
        2.0213519714377265e-14,
        2.707167856703783e-16,
        0.06499999761581421
      ],
      "min": [
        -0.12999999523162842,
        -0.18880024552345276,
        -0.0650000050663948
      ],
      "type": "VEC3"
    },
    {
      "bufferView": 9,
      "componentType": 5126,
      "count": 28,
      "type": "VEC3"
    },
    {
      "bufferView": 10,
      "componentType": 5126,
      "count": 28,
      "type": "VEC2"
    },
    {
      "bufferView": 11,
      "componentType": 5123,
      "count": 30,
      "type": "SCALAR"
    },
    {
      "bufferView": 12,
      "componentType": 5126,
      "count": 40,
      "max": [
        0.11159200221300125,
        -0.13318400084972382,
        0.055796001106500626
      ],
      "min": [
        -3.36009331469711e-10,
        -0.33631783723831177,
        -0.10089566558599472
      ],
      "type": "VEC3"
    },
    {
      "bufferView": 13,
      "componentType": 5126,
      "count": 40,
      "type": "VEC3"
    },
    {
      "bufferView": 14,
      "componentType": 5126,
      "count": 40,
      "type": "VEC2"
    },
    {
      "bufferView": 15,
      "componentType": 5123,
      "count": 42,
      "type": "SCALAR"
    },
    {
      "bufferView": 16,
      "componentType": 5126,
      "count": 20,
      "max": [
        0.11159200221300125,
        1.804778527019556e-16,
        0.055796001106500626
      ],
      "min": [
        0,
        -0.16206613183021545,
        -0.055796001106500626
      ],
      "type": "VEC3"
    },
    {
      "bufferView": 17,
      "componentType": 5126,
      "count": 20,
      "type": "VEC3"
    },
    {
      "bufferView": 18,
      "componentType": 5126,
      "count": 20,
      "type": "VEC2"
    },
    {
      "bufferView": 19,
      "componentType": 5123,
      "count": 30,
      "type": "SCALAR"
    },
    {
      "bufferView": 20,
      "componentType": 5126,
      "count": 8,
      "max": [
        0.11159200221300125,
        1.804778527019556e-16,
        0.055796001106500626
      ],
      "min": [
        0,
        -0.055796001106500626,
        -0.055796001106500626
      ],
      "type": "VEC3"
    },
    {
      "bufferView": 21,
      "componentType": 5126,
      "count": 8,
      "type": "VEC3"
    },
    {
      "bufferView": 22,
      "componentType": 5126,
      "count": 8,
      "type": "VEC2"
    },
    {
      "bufferView": 23,
      "componentType": 5123,
      "count": 12,
      "type": "SCALAR"
    },
    {
      "bufferView": 24,
      "componentType": 5126,
      "count": 54,
      "max": [
        0.12999999523162842,
        0.3100000023841858,
        0.20000000298023224
      ],
      "min": [
        -0.12999999523162842,
        0,
        -0.12999999523162842
      ],
      "type": "VEC3"
    },
    {
      "bufferView": 25,
      "componentType": 5126,
      "count": 54,
      "type": "VEC3"
    },
    {
      "bufferView": 26,
      "componentType": 5126,
      "count": 54,
      "type": "VEC2"
    },
    {
      "bufferView": 27,
      "componentType": 5123,
      "count": 84,
      "type": "SCALAR"
    },
    {
      "bufferView": 28,
      "componentType": 5126,
      "count": 51,
      "max": [
        0.12999999523162842,
        0.3100000023841858,
        0.20000000298023224
      ],
      "min": [
        -0.12999999523162842,
        0.06101793050765991,
        -0.12999999523162842
      ],
      "type": "VEC3"
    },
    {
      "bufferView": 29,
      "componentType": 5126,
      "count": 51,
      "type": "VEC3"
    },
    {
      "bufferView": 30,
      "componentType": 5126,
      "count": 51,
      "type": "VEC2"
    },
    {
      "bufferView": 31,
      "componentType": 5123,
      "count": 66,
      "type": "SCALAR"
    },
    {
      "bufferView": 32,
      "componentType": 5126,
      "count": 47,
      "max": [
        0.12999999523162842,
        0.25999999046325684,
        0.10000000149011612
      ],
      "min": [
        -0.12999999523162842,
        0.06101793050765991,
        -0.12999999523162842
      ],
      "type": "VEC3"
    },
    {
      "bufferView": 33,
      "componentType": 5126,
      "count": 47,
      "type": "VEC3"
    },
    {
      "bufferView": 34,
      "componentType": 5126,
      "count": 47,
      "type": "VEC2"
    },
    {
      "bufferView": 35,
      "componentType": 5123,
      "count": 66,
      "type": "SCALAR"
    },
    {
      "bufferView": 36,
      "componentType": 5126,
      "count": 176,
      "max": [
        0.7307692170143127,
        1.384615421295166,
        0.5
      ],
      "min": [
        -0.7307692170143127,
        0,
        -0.5
      ],
      "type": "VEC3"
    },
    {
      "bufferView": 37,
      "componentType": 5126,
      "count": 176,
      "type": "VEC3"
    },
    {
      "bufferView": 38,
      "componentType": 5126,
      "count": 176,
      "type": "VEC2"
    },
    {
      "bufferView": 39,
      "componentType": 5123,
      "count": 282,
      "type": "SCALAR"
    },
    {
      "bufferView": 40,
      "componentType": 5126,
      "count": 4,
      "max": [
        0.1339634358882904,
        0.21208496391773224,
        -0.5
      ],
      "min": [
        -0.1339634358882904,
        0.11872120201587677,
        -0.5
      ],
      "type": "VEC3"
    },
    {
      "bufferView": 41,
      "componentType": 5126,
      "count": 4,
      "type": "VEC3"
    },
    {
      "bufferView": 42,
      "componentType": 5126,
      "count": 4,
      "type": "VEC2"
    },
    {
      "bufferView": 43,
      "componentType": 5123,
      "count": 6,
      "type": "SCALAR"
    },
    {
      "bufferView": 44,
      "componentType": 5126,
      "count": 8,
      "max": [
        0.35570403933525085,
        0.5492101907730103,
        -0.5
      ],
      "min": [
        -0.35570403933525085,
        0.31791940331459045,
        -0.5
      ],
      "type": "VEC3"
    },
    {
      "bufferView": 45,
      "componentType": 5126,
      "count": 8,
      "type": "VEC3"
    },
    {
      "bufferView": 46,
      "componentType": 5126,
      "count": 8,
      "type": "VEC2"
    },
    {
      "bufferView": 47,
      "componentType": 5123,
      "count": 12,
      "type": "SCALAR"
    },
    {
      "bufferView": 48,
      "componentType": 5126,
      "count": 22,
      "max": [
        0.11159200221300125,
        0,
        0.055796001106500626
      ],
      "min": [
        0,
        -0.09435008466243744,
        -0.06579600274562836
      ],
      "type": "VEC3"
    },
    {
      "bufferView": 49,
      "componentType": 5126,
      "count": 22,
      "type": "VEC3"
    },
    {
      "bufferView": 50,
      "componentType": 5126,
      "count": 22,
      "type": "VEC2"
    },
    {
      "bufferView": 51,
      "componentType": 5123,
      "count": 30,
      "type": "SCALAR"
    },
    {
      "bufferView": 52,
      "componentType": 5126,
      "count": 45,
      "max": [
        0.11159200221300125,
        -0.09435008466243744,
        0.07579599320888519
      ],
      "min": [
        0,
        -0.2231840044260025,
        -0.10000000149011612
      ],
      "type": "VEC3"
    },
    {
      "bufferView": 53,
      "componentType": 5126,
      "count": 45,
      "type": "VEC3"
    },
    {
      "bufferView": 54,
      "componentType": 5126,
      "count": 45,
      "type": "VEC2"
    },
    {
      "bufferView": 55,
      "componentType": 5123,
      "count": 60,
      "type": "SCALAR"
    },
    {
      "bufferView": 56,
      "componentType": 5126,
      "count": 4,
      "max": [
        0.11159200221300125,
        -0.2231840044260025,
        0.07579599320888519
      ],
      "min": [
        0,
        -0.2231840044260025,
        -0.10000000149011612
      ],
      "type": "VEC3"
    },
    {
      "bufferView": 57,
      "componentType": 5126,
      "count": 4,
      "type": "VEC3"
    },
    {
      "bufferView": 58,
      "componentType": 5126,
      "count": 4,
      "type": "VEC2"
    },
    {
      "bufferView": 59,
      "componentType": 5123,
      "count": 6,
      "type": "SCALAR"
    },
    {
      "bufferView": 60,
      "componentType": 5126,
      "count": 52,
      "max": [
        2.8876456432312897e-15,
        -0.1099138930439949,
        0.08829915523529053
      ],
      "min": [
        -0.12999999523162842,
        -0.25999999046325684,
        -0.11649581044912338
      ],
      "type": "VEC3"
    },
    {
      "bufferView": 61,
      "componentType": 5126,
      "count": 52,
      "type": "VEC3"
    },
    {
      "bufferView": 62,
      "componentType": 5126,
      "count": 52,
      "type": "VEC2"
    },
    {
      "bufferView": 63,
      "componentType": 5123,
      "count": 60,
      "type": "SCALAR"
    },
    {
      "bufferView": 64,
      "componentType": 5126,
      "count": 24,
      "max": [
        2.8876456432312897e-15,
        1.3535839283518916e-16,
        0.06499999761581421
      ],
      "min": [
        -0.12999999523162842,
        -0.1099138930439949,
        -0.07664957642555237
      ],
      "type": "VEC3"
    },
    {
      "bufferView": 65,
      "componentType": 5126,
      "count": 24,
      "type": "VEC3"
    },
    {
      "bufferView": 66,
      "componentType": 5126,
      "count": 24,
      "type": "VEC2"
    },
    {
      "bufferView": 67,
      "componentType": 5123,
      "count": 30,
      "type": "SCALAR"
    },
    {
      "bufferView": 68,
      "componentType": 5126,
      "count": 6,
      "max": [
        2.8876456432312897e-15,
        -0.25999999046325684,
        0.08829915523529053
      ],
      "min": [
        -0.12999999523162842,
        -0.25999999046325684,
        -0.11649581044912338
      ],
      "type": "VEC3"
    },
    {
      "bufferView": 69,
      "componentType": 5126,
      "count": 6,
      "type": "VEC3"
    },
    {
      "bufferView": 70,
      "componentType": 5126,
      "count": 6,
      "type": "VEC2"
    },
    {
      "bufferView": 71,
      "componentType": 5123,
      "count": 6,
      "type": "SCALAR"
    }
  ],
  "bufferViews": [
    {
      "buffer": 0,
      "byteLength": 432,
      "byteOffset": 0
    },
    {
      "buffer": 0,
      "byteLength": 432,
      "byteOffset": 432
    },
    {
      "buffer": 0,
      "byteLength": 288,
      "byteOffset": 864
    },
    {
      "buffer": 0,
      "byteLength": 84,
      "byteOffset": 1152
    },
    {
      "buffer": 0,
      "byteLength": 144,
      "byteOffset": 1236
    },
    {
      "buffer": 0,
      "byteLength": 144,
      "byteOffset": 1380
    },
    {
      "buffer": 0,
      "byteLength": 96,
      "byteOffset": 1524
    },
    {
      "buffer": 0,
      "byteLength": 24,
      "byteOffset": 1620
    },
    {
      "buffer": 0,
      "byteLength": 336,
      "byteOffset": 1644
    },
    {
      "buffer": 0,
      "byteLength": 336,
      "byteOffset": 1980
    },
    {
      "buffer": 0,
      "byteLength": 224,
      "byteOffset": 2316
    },
    {
      "buffer": 0,
      "byteLength": 60,
      "byteOffset": 2540
    },
    {
      "buffer": 0,
      "byteLength": 480,
      "byteOffset": 2600
    },
    {
      "buffer": 0,
      "byteLength": 480,
      "byteOffset": 3080
    },
    {
      "buffer": 0,
      "byteLength": 320,
      "byteOffset": 3560
    },
    {
      "buffer": 0,
      "byteLength": 84,
      "byteOffset": 3880
    },
    {
      "buffer": 0,
      "byteLength": 240,
      "byteOffset": 3964
    },
    {
      "buffer": 0,
      "byteLength": 240,
      "byteOffset": 4204
    },
    {
      "buffer": 0,
      "byteLength": 160,
      "byteOffset": 4444
    },
    {
      "buffer": 0,
      "byteLength": 60,
      "byteOffset": 4604
    },
    {
      "buffer": 0,
      "byteLength": 96,
      "byteOffset": 4664
    },
    {
      "buffer": 0,
      "byteLength": 96,
      "byteOffset": 4760
    },
    {
      "buffer": 0,
      "byteLength": 64,
      "byteOffset": 4856
    },
    {
      "buffer": 0,
      "byteLength": 24,
      "byteOffset": 4920
    },
    {
      "buffer": 0,
      "byteLength": 648,
      "byteOffset": 4944
    },
    {
      "buffer": 0,
      "byteLength": 648,
      "byteOffset": 5592
    },
    {
      "buffer": 0,
      "byteLength": 432,
      "byteOffset": 6240
    },
    {
      "buffer": 0,
      "byteLength": 168,
      "byteOffset": 6672
    },
    {
      "buffer": 0,
      "byteLength": 612,
      "byteOffset": 6840
    },
    {
      "buffer": 0,
      "byteLength": 612,
      "byteOffset": 7452
    },
    {
      "buffer": 0,
      "byteLength": 408,
      "byteOffset": 8064
    },
    {
      "buffer": 0,
      "byteLength": 132,
      "byteOffset": 8472
    },
    {
      "buffer": 0,
      "byteLength": 564,
      "byteOffset": 8604
    },
    {
      "buffer": 0,
      "byteLength": 564,
      "byteOffset": 9168
    },
    {
      "buffer": 0,
      "byteLength": 376,
      "byteOffset": 9732
    },
    {
      "buffer": 0,
      "byteLength": 132,
      "byteOffset": 10108
    },
    {
      "buffer": 0,
      "byteLength": 2112,
      "byteOffset": 10240
    },
    {
      "buffer": 0,
      "byteLength": 2112,
      "byteOffset": 12352
    },
    {
      "buffer": 0,
      "byteLength": 1408,
      "byteOffset": 14464
    },
    {
      "buffer": 0,
      "byteLength": 564,
      "byteOffset": 15872
    },
    {
      "buffer": 0,
      "byteLength": 48,
      "byteOffset": 16436
    },
    {
      "buffer": 0,
      "byteLength": 48,
      "byteOffset": 16484
    },
    {
      "buffer": 0,
      "byteLength": 32,
      "byteOffset": 16532
    },
    {
      "buffer": 0,
      "byteLength": 12,
      "byteOffset": 16564
    },
    {
      "buffer": 0,
      "byteLength": 96,
      "byteOffset": 16576
    },
    {
      "buffer": 0,
      "byteLength": 96,
      "byteOffset": 16672
    },
    {
      "buffer": 0,
      "byteLength": 64,
      "byteOffset": 16768
    },
    {
      "buffer": 0,
      "byteLength": 24,
      "byteOffset": 16832
    },
    {
      "buffer": 0,
      "byteLength": 264,
      "byteOffset": 16856
    },
    {
      "buffer": 0,
      "byteLength": 264,
      "byteOffset": 17120
    },
    {
      "buffer": 0,
      "byteLength": 176,
      "byteOffset": 17384
    },
    {
      "buffer": 0,
      "byteLength": 60,
      "byteOffset": 17560
    },
    {
      "buffer": 0,
      "byteLength": 540,
      "byteOffset": 17620
    },
    {
      "buffer": 0,
      "byteLength": 540,
      "byteOffset": 18160
    },
    {
      "buffer": 0,
      "byteLength": 360,
      "byteOffset": 18700
    },
    {
      "buffer": 0,
      "byteLength": 120,
      "byteOffset": 19060
    },
    {
      "buffer": 0,
      "byteLength": 48,
      "byteOffset": 19180
    },
    {
      "buffer": 0,
      "byteLength": 48,
      "byteOffset": 19228
    },
    {
      "buffer": 0,
      "byteLength": 32,
      "byteOffset": 19276
    },
    {
      "buffer": 0,
      "byteLength": 12,
      "byteOffset": 19308
    },
    {
      "buffer": 0,
      "byteLength": 624,
      "byteOffset": 19320
    },
    {
      "buffer": 0,
      "byteLength": 624,
      "byteOffset": 19944
    },
    {
      "buffer": 0,
      "byteLength": 416,
      "byteOffset": 20568
    },
    {
      "buffer": 0,
      "byteLength": 120,
      "byteOffset": 20984
    },
    {
      "buffer": 0,
      "byteLength": 288,
      "byteOffset": 21104
    },
    {
      "buffer": 0,
      "byteLength": 288,
      "byteOffset": 21392
    },
    {
      "buffer": 0,
      "byteLength": 192,
      "byteOffset": 21680
    },
    {
      "buffer": 0,
      "byteLength": 60,
      "byteOffset": 21872
    },
    {
      "buffer": 0,
      "byteLength": 72,
      "byteOffset": 21932
    },
    {
      "buffer": 0,
      "byteLength": 72,
      "byteOffset": 22004
    },
    {
      "buffer": 0,
      "byteLength": 48,
      "byteOffset": 22076
    },
    {
      "buffer": 0,
      "byteLength": 12,
      "byteOffset": 22124
    }
  ],
  "buffers": [
    {
      "uri": "alien_data.bin",
      "byteLength": 22136
    }
  ]
}